<svg xmlns="http://www.w3.org/2000/svg" width="24.343" height="24.343" viewBox="0 0 24.343 24.343">
    <path data-name="Path 3178" d="M3 9.491c0-2.272 0-3.408.442-4.276a4.057 4.057 0 0 1 1.773-1.773C6.083 3 7.219 3 9.491 3h11.36c2.272 0 3.408 0 4.276.442A4.057 4.057 0 0 1 26.9 5.215c.442.868.442 2 .442 4.276v11.36c0 2.272 0 3.408-.442 4.276a4.056 4.056 0 0 1-1.773 1.773c-.868.442-2 .442-4.276.442H9.491c-2.272 0-3.408 0-4.276-.442a4.057 4.057 0 0 1-1.773-1.773C3 24.26 3 23.124 3 20.851z" transform="translate(-3 -3)" style="fill:#dd4c17"/>
    <path data-name="Path 3179" d="M19.876 13.114a1.352 1.352 0 0 1-1.352-1.352v-1.353h-1.353a1.352 1.352 0 1 1 0-2.7h1.352V6.352a1.352 1.352 0 0 1 2.7 0V7.7h1.352a1.352 1.352 0 1 1 0 2.7h-1.347v1.352a1.352 1.352 0 0 1-1.352 1.362zM6.352 7.7a1.352 1.352 0 0 0 0 2.7h5.409a1.352 1.352 0 0 0 0-2.7zm9.467 9.467a1.352 1.352 0 0 1 1.352-1.352h5.409a1.352 1.352 0 1 1 0 2.7h-5.409a1.352 1.352 0 0 1-1.352-1.344zm1.352 4.057a1.352 1.352 0 1 0 0 2.7h5.409a1.352 1.352 0 1 0 0-2.7zm-11.1-4.337a1.352 1.352 0 0 1 1.913 0l1.072 1.072 1.072-1.072a1.352 1.352 0 0 1 1.914 1.913l-1.072 1.076 1.072 1.072a1.352 1.352 0 1 1-1.913 1.913l-1.072-1.072-1.072 1.072a1.352 1.352 0 0 1-1.913-1.913l1.072-1.072L6.072 18.8a1.352 1.352 0 0 1 0-1.909z" transform="translate(-2.295 -2.295)" style="fill:#fff;fill-rule:evenodd"/>
</svg>
