<svg xmlns="http://www.w3.org/2000/svg" width="29.988" height="23.99" viewBox="0 0 29.988 23.99">
    <g data-name="Coupon Discount">
        <path data-name="Path 3633" d="M31.988 23.711a5.925 5.925 0 0 0-1.689-3.8A5.7 5.7 0 0 1 28.989 16a5.7 5.7 0 0 1 1.311-3.92 5.925 5.925 0 0 0 1.689-3.8A4.279 4.279 0 0 0 27.708 4H6.279A4.279 4.279 0 0 0 2 8.279a5.925 5.925 0 0 0 1.689 3.8A5.7 5.7 0 0 1 5 16a5.7 5.7 0 0 1-1.31 3.915A5.926 5.926 0 0 0 2 23.711a4.279 4.279 0 0 0 4.279 4.279h21.429a4.279 4.279 0 0 0 4.28-4.279z" style="fill:#6a1d9b" transform="translate(-2 -4)"/>
        <path data-name="Path 3634" d="M10.5 12a1.5 1.5 0 1 1 1.5-1.5 1.5 1.5 0 0 1-1.5 1.5zm7.058-.439-6 6a1.5 1.5 0 0 1-2.12-2.12l6-6a1.5 1.5 0 1 1 2.12 2.12zM15 16.5a1.5 1.5 0 1 0 1.5-1.5 1.5 1.5 0 0 0-1.5 1.5z" transform="translate(1.496 -1.503)" style="fill:#fff;fill-rule:evenodd"/>
    </g>
</svg>
